<svg width="26.005859" height="23.974609" viewBox="0 0 26.0059 23.9746" fill="none" xmlns="http://www.w3.org/2000/svg" xmlns:xlink="http://www.w3.org/1999/xlink">
	<desc>
			Created with Pixso.
	</desc>
	<defs/>
	<path id="Vector" d="M21.4102 22.9746L21.2969 22.9746C20.6875 22.9746 20.1758 22.4746 20.1328 21.8359C20.0879 21.168 20.5762 20.5859 21.2207 20.541C21.2461 20.5391 21.2734 20.5391 21.2988 20.5391C21.916 20.5391 22.4336 21.0293 22.4785 21.6562C22.4902 21.9043 22.4512 22.2578 22.1953 22.5508L22.1895 22.5586L22.1836 22.5645C21.9863 22.7988 21.7188 22.9395 21.4102 22.9746ZM7.67773 22.9668C7.02734 22.9668 6.49805 22.4238 6.49805 21.7578C6.49805 21.0898 7.02734 20.5469 7.67773 20.5469C8.32812 20.5469 8.85742 21.0898 8.85742 21.7578C8.85742 22.4238 8.32812 22.9668 7.67773 22.9668Z" fill="#FFFFFF" fill-opacity="1.000000" fill-rule="nonzero"/>
	<path id="Vector" d="M21.332 21.9727C21.3789 21.9609 21.3984 21.9414 21.418 21.9199C21.4258 21.9102 21.4336 21.9023 21.4414 21.8926C21.4766 21.8516 21.4805 21.7617 21.4785 21.7168C21.4668 21.6113 21.375 21.5391 21.2988 21.5391C21.2949 21.5391 21.291 21.5391 21.2891 21.5391C21.2109 21.5449 21.123 21.6484 21.1289 21.7695C21.1387 21.8867 21.2246 21.9727 21.2969 21.9727L21.332 21.9727ZM7.67578 21.9668C7.77539 21.9668 7.85547 21.873 7.85547 21.7559C7.85547 21.6406 7.77539 21.5469 7.67578 21.5469C7.57812 21.5469 7.49609 21.6406 7.49609 21.7559C7.49609 21.873 7.57812 21.9668 7.67578 21.9668ZM21.457 23.9727C21.4082 23.9727 21.3457 23.9727 21.2969 23.9727C20.1582 23.9727 19.2129 23.0625 19.1328 21.9043C19.0527 20.6992 19.9512 19.625 21.1523 19.543C21.2012 19.541 21.25 19.5391 21.2988 19.5391C22.4375 19.5391 23.3984 20.4395 23.4766 21.5957C23.5078 22.1992 23.332 22.7676 22.9473 23.209C22.5625 23.6641 22.0332 23.9238 21.457 23.9727ZM7.67578 23.9668C6.47266 23.9668 5.49609 22.9785 5.49609 21.7559C5.49609 20.5352 6.47266 19.5469 7.67578 19.5469C8.88086 19.5469 9.85547 20.5352 9.85547 21.7559C9.85547 22.9785 8.88086 23.9668 7.67578 23.9668ZM20.6562 17.1016L8.58984 17.1016C8.15625 17.1016 7.77344 16.8066 7.66016 16.3848L3.73438 1.95508L0.978516 1.95508C0.451172 1.95508 0.0175781 1.51562 0.0175781 0.976562C0.0175781 0.439453 0.451172 0 0.978516 0L4.45703 0C4.88867 0 5.27344 0.292969 5.38477 0.716797L9.31055 15.1465L20.0156 15.1465L23.5723 6.83984L11.7148 6.83984C11.1855 6.83984 10.752 6.40039 10.752 5.86328C10.752 5.32617 11.1855 4.88672 11.7148 4.88672L25.0449 4.88672C25.3652 4.88672 25.6719 5.04883 25.8477 5.32617C26.0234 5.60156 26.0547 5.94531 25.9258 6.25391L21.5371 16.5137C21.377 16.873 21.0391 17.1016 20.6562 17.1016Z" fill="#FFFFFF" fill-opacity="1.000000" fill-rule="nonzero"/>
	<path id="Vector" d="M21.332 21.9727C21.3789 21.9609 21.3984 21.9414 21.418 21.9199C21.4258 21.9102 21.4336 21.9023 21.4414 21.8926C21.4766 21.8516 21.4805 21.7617 21.4785 21.7168C21.4668 21.6113 21.375 21.5391 21.2988 21.5391C21.2949 21.5391 21.291 21.5391 21.2891 21.5391C21.2109 21.5449 21.123 21.6484 21.1289 21.7695C21.1387 21.8867 21.2246 21.9727 21.2969 21.9727L21.332 21.9727ZM7.67578 21.9668C7.77539 21.9668 7.85547 21.873 7.85547 21.7559C7.85547 21.6406 7.77539 21.5469 7.67578 21.5469C7.57812 21.5469 7.49609 21.6406 7.49609 21.7559C7.49609 21.873 7.57812 21.9668 7.67578 21.9668ZM21.457 23.9727C21.4082 23.9727 21.3457 23.9727 21.2969 23.9727C20.1582 23.9727 19.2129 23.0625 19.1328 21.9043C19.0527 20.6992 19.9512 19.625 21.1523 19.543C21.2012 19.541 21.25 19.5391 21.2988 19.5391C22.4375 19.5391 23.3984 20.4395 23.4766 21.5957C23.5078 22.1992 23.332 22.7676 22.9473 23.209C22.5625 23.6641 22.0332 23.9238 21.457 23.9727ZM7.67578 23.9668C6.47266 23.9668 5.49609 22.9785 5.49609 21.7559C5.49609 20.5352 6.47266 19.5469 7.67578 19.5469C8.88086 19.5469 9.85547 20.5352 9.85547 21.7559C9.85547 22.9785 8.88086 23.9668 7.67578 23.9668ZM20.6562 17.1016L8.58984 17.1016C8.15625 17.1016 7.77344 16.8066 7.66016 16.3848L3.73438 1.95508L0.978516 1.95508C0.451172 1.95508 0.0175781 1.51562 0.0175781 0.976562C0.0175781 0.439453 0.451172 0 0.978516 0L4.45703 0C4.88867 0 5.27344 0.292969 5.38477 0.716797L9.31055 15.1465L20.0156 15.1465L23.5723 6.83984L11.7148 6.83984C11.1855 6.83984 10.752 6.40039 10.752 5.86328C10.752 5.32617 11.1855 4.88672 11.7148 4.88672L25.0449 4.88672C25.3652 4.88672 25.6719 5.04883 25.8477 5.32617C26.0234 5.60156 26.0547 5.94531 25.9258 6.25391L21.5371 16.5137C21.377 16.873 21.0391 17.1016 20.6562 17.1016Z" fill="#FFFFFF" fill-opacity="1.000000" fill-rule="nonzero"/>
</svg>
